<mxfile host="app.diagrams.net" modified="2021-10-18T16:50:49.269Z" agent="5.0 (Windows)" etag="FpQTdS1EWC72-QbWelkP" version="15.5.5" type="github">
  <diagram id="UHA8Z30PuBStkMt8zuTC" name="Page-1">
    <mxGraphModel dx="7110" dy="5360" grid="1" gridSize="10" guides="1" tooltips="1" connect="1" arrows="1" fold="1" page="1" pageScale="1" pageWidth="1200" pageHeight="1600" math="0" shadow="0">
      <root>
        <mxCell id="0" />
        <mxCell id="1" parent="0" />
        <mxCell id="fIEq2zizXpl1goJu9Mbb-1" value="LOCAL&lt;br&gt;Project" style="shape=cylinder3;whiteSpace=wrap;html=1;boundedLbl=1;backgroundOutline=1;size=15;fillColor=#f8cecc;strokeColor=#b85450;" parent="1" vertex="1">
          <mxGeometry x="435" y="550" width="160" height="180" as="geometry" />
        </mxCell>
        <mxCell id="fIEq2zizXpl1goJu9Mbb-3" value="INTERNET" style="ellipse;shape=cloud;whiteSpace=wrap;html=1;fillColor=#dae8fc;strokeColor=#6c8ebf;" parent="1" vertex="1">
          <mxGeometry x="352" y="-20" width="326" height="290" as="geometry" />
        </mxCell>
        <mxCell id="fIEq2zizXpl1goJu9Mbb-2" value="&lt;font style=&quot;font-size: 24px&quot;&gt;&lt;b&gt;GitHUB&lt;/b&gt;&lt;/font&gt;" style="shape=cylinder3;whiteSpace=wrap;html=1;boundedLbl=1;backgroundOutline=1;size=15;fillColor=#fa6800;strokeColor=#C73500;fontColor=#000000;" parent="1" vertex="1">
          <mxGeometry x="450" y="180" width="130" height="190" as="geometry" />
        </mxCell>
        <mxCell id="fIEq2zizXpl1goJu9Mbb-4" value="" style="shape=flexArrow;endArrow=classic;startArrow=classic;html=1;rounded=0;fontSize=24;fillColor=#76608a;strokeColor=#432D57;" parent="1" edge="1">
          <mxGeometry width="100" height="100" relative="1" as="geometry">
            <mxPoint x="510" y="510" as="sourcePoint" />
            <mxPoint x="510" y="390" as="targetPoint" />
            <Array as="points">
              <mxPoint x="510" y="450" />
            </Array>
          </mxGeometry>
        </mxCell>
        <mxCell id="WykywK5mCLRqybDy4p8r-1" value="" style="shape=flexArrow;endArrow=classic;html=1;rounded=0;fontSize=24;" edge="1" parent="1">
          <mxGeometry width="50" height="50" relative="1" as="geometry">
            <mxPoint x="220" y="490" as="sourcePoint" />
            <mxPoint x="290" y="420" as="targetPoint" />
          </mxGeometry>
        </mxCell>
      </root>
    </mxGraphModel>
  </diagram>
</mxfile>
